<svg width="17" height="19" viewBox="0 0 17 19" fill="none" xmlns="http://www.w3.org/2000/svg">
<path d="M10.6054 7.75415L8.66173 8.69859L10.6054 7.75415ZM8.66173 8.69859L6.7181 7.75415L8.66173 8.69859ZM8.66173 8.69859V11.0597V8.69859ZM16.4363 4.92083L14.4926 5.86527L16.4363 4.92083ZM16.4363 4.92083L14.4926 3.97639L16.4363 4.92083ZM16.4363 4.92083V7.28193V4.92083ZM10.6054 2.08751L8.66173 1.14307L6.7181 2.08751H10.6054ZM0.887207 4.92083L2.83084 3.97639L0.887207 4.92083ZM0.887207 4.92083L2.83084 5.86527L0.887207 4.92083ZM0.887207 4.92083V7.28193V4.92083ZM8.66173 18.143L6.7181 17.1986L8.66173 18.143ZM8.66173 18.143L10.6054 17.1986L8.66173 18.143ZM8.66173 18.143V15.7819V18.143ZM2.83084 15.3097L0.887207 14.3652V12.0041L2.83084 15.3097ZM14.4926 15.3097L16.4363 14.3652V12.0041" fill="#B8B8B8"/>
<path d="M14.4926 15.3097L16.4363 14.3652V12.0041M10.6054 7.75415L8.66173 8.69859L10.6054 7.75415ZM8.66173 8.69859L6.7181 7.75415L8.66173 8.69859ZM8.66173 8.69859V11.0597V8.69859ZM16.4363 4.92083L14.4926 5.86527L16.4363 4.92083ZM16.4363 4.92083L14.4926 3.97639L16.4363 4.92083ZM16.4363 4.92083V7.28193V4.92083ZM10.6054 2.08751L8.66173 1.14307L6.7181 2.08751H10.6054ZM0.887207 4.92083L2.83084 3.97639L0.887207 4.92083ZM0.887207 4.92083L2.83084 5.86527L0.887207 4.92083ZM0.887207 4.92083V7.28193V4.92083ZM8.66173 18.143L6.7181 17.1986L8.66173 18.143ZM8.66173 18.143L10.6054 17.1986L8.66173 18.143ZM8.66173 18.143V15.7819V18.143ZM2.83084 15.3097L0.887207 14.3652V12.0041L2.83084 15.3097Z" stroke="#B8B8B8" stroke-linecap="round" stroke-linejoin="round"/>
</svg>
